<svg xmlns="http://www.w3.org/2000/svg" fill="none" viewBox="0 0 24 24"><path style="fill: var(--icon-color, black); transition: fill .2s linear;" d="M24 20.139v-6.96c0-2.276 0-3.414-.468-4.42-.468-1.006-1.35-1.762-3.112-3.275L19.087 4.34C15.714 1.447 14.027 0 12 0 9.972 0 8.286 1.447 4.913 4.34L3.58 5.484C1.817 6.997.936 7.753.468 8.76 0 9.765 0 10.903 0 13.179v6.96c0 1.2 0 1.799.203 2.272.27.63.79 1.132 1.443 1.393C2.136 24 2.757 24 4 24h.444c.827 0 1.24 0 1.58-.088a2.622 2.622 0 001.885-1.82C8 21.765 8 21.366 8 20.568v-3.003c0-2.132 1.79-3.86 4-3.86s4 1.728 4 3.86v3.003c0 .798 0 1.197.09 1.524a2.623 2.623 0 001.887 1.82c.339.088.752.088 1.579.088H20c1.243 0 1.864 0 2.354-.196a2.623 2.623 0 001.443-1.393C24 21.938 24 21.338 24 20.14z"/></svg>