<svg xmlns="http://www.w3.org/2000/svg" fill="none" viewBox="0 0 24 24"><path style="fill: var(--icon-color, black); transition: fill .2s linear;" fill-rule="evenodd" d="M1.562 1.599C0 3.198 0 5.77 0 10.918v10.434c0 1.068 0 1.602.138 1.887.296.614.99.908 1.623.689.295-.103.664-.48 1.402-1.235.598-.613.897-.92 1.227-1.166a5.27 5.27 0 012.34-.992c.404-.064.827-.064 1.673-.064H14c4.383 0 6.575 0 8.05-1.24.27-.226.518-.48.74-.756C24 16.965 24 14.722 24 10.235c0-4.486 0-6.73-1.21-8.24a5.398 5.398 0 00-.74-.756C20.575 0 18.383 0 14 0h-3.333C5.638 0 3.124 0 1.562 1.599zM6 12.283c1.105 0 2-.917 2-2.048 0-1.13-.895-2.047-2-2.047s-2 .917-2 2.047c0 1.131.895 2.048 2 2.048zm8-2.048c0 1.131-.896 2.048-2 2.048s-2-.917-2-2.048c0-1.13.896-2.047 2-2.047s2 .917 2 2.047zm4 2.048c1.105 0 2-.917 2-2.048 0-1.13-.895-2.047-2-2.047s-2 .917-2 2.047c0 1.131.895 2.048 2 2.048z" clip-rule="evenodd"/></svg>