<svg xmlns="http://www.w3.org/2000/svg" fill="none" viewBox="0 0 18 12">
  <path fill="#fff" d="M13.2071.792893c-.3905-.390524-1.0237-.390524-1.4142 0-.3905.390527-.3905 1.023687 0 1.414217L13.2071.792893zm3.0858 5.914217c.3905.39052 1.0237.39052 1.4142 0 .3905-.39053.3905-1.02369 0-1.41422l-1.4142 1.41422zm1.4142 0c.3905-.39053.3905-1.02369 0-1.41422-.3905-.39052-1.0237-.39052-1.4142 0l1.4142 1.41422zm-5.9142 3.08578c-.3905.39051-.3905 1.02371 0 1.41421.3905.3905 1.0237.3905 1.4142 0l-1.4142-1.41421zM17 7c.5523 0 1-.44772 1-1s-.4477-1-1-1v2zM1 5c-.552285 0-1 .44772-1 1s.447715 1 1 1V5zm10.7929-2.79289l4.5 4.5 1.4142-1.41422-4.5-4.499997-1.4142 1.414217zm4.5 3.08578l-4.5 4.5 1.4142 1.41421 4.5-4.49999-1.4142-1.41422zM17 5H1v2h16V5z"/>
</svg>